<?xml version="1.0" encoding="iso-8859-1"?>
<!-- Generator: Adobe Illustrator 19.0.0, SVG Export Plug-In . SVG Version: 6.00 Build 0)  -->
<svg version="1.1" id="Layer_1" xmlns="http://www.w3.org/2000/svg" xmlns:xlink="http://www.w3.org/1999/xlink" x="0px" y="0px"
	 viewBox="0 0 512.001 512.001" style="enable-background:new 0 0 512.001 512.001;" xml:space="preserve">
<path style="fill:#C3DFF7;" d="M468.113,296.132L468.113,296.132c3.445-4.658,5.434-11.269,5.457-19.543
	c0.07-24.586-17.217-54.528-38.605-66.876c-8.659-4.999-16.665-6.343-23.127-4.547c-17.384-64.258-62.647-129.014-115.862-159.739
	c-34.419-19.872-65.604-21.715-88.123-8.629L142.25,74.924c-10.153-1.444-19.265,0.167-26.78,4.534l-93.616,54.405
	c0.044-0.025,0.088-0.048,0.132-0.073C8.462,141.573,0.068,158.219,0,181.915c-0.135,47.536,33.297,105.442,74.674,129.33
	l284.415,164.207c16.9,9.757,32.155,10.387,42.963,3.541c-0.303,0.192-0.597,0.398-0.907,0.578l93.617-54.404
	c10.608-6.165,17.184-19.272,17.238-37.9C512.089,355.724,493.448,318.412,468.113,296.132z"/>
<g>
	<path style="fill:#D2E7F8;" d="M21.854,133.862l93.617-54.404c13.622-7.916,32.487-6.8,53.309,5.221
		c1.916,1.107,3.816,2.31,5.698,3.563l-93.617,54.404c-1.882-1.253-3.781-2.457-5.698-3.563
		C54.341,127.062,35.477,125.945,21.854,133.862z"/>
	<path style="fill:#D2E7F8;" d="M114.237,91.203L207.854,36.8c22.52-13.087,53.705-11.243,88.123,8.629L202.36,99.832
		C167.942,79.96,136.757,78.116,114.237,91.203z"/>
	<path style="fill:#D2E7F8;" d="M494.763,425.167l-93.617,54.404c10.608-6.165,17.185-19.272,17.238-37.899
		c0.09-31.544-18.552-68.857-43.888-91.136l93.617-54.404c25.336,22.28,43.977,59.593,43.888,91.136
		C511.947,405.896,505.371,419.003,494.763,425.167z"/>
	<path style="fill:#D2E7F8;" d="M202.361,99.832l93.617-54.404c53.216,30.724,98.477,95.48,115.862,159.739l-93.617,54.404
		C300.838,195.312,255.576,130.556,202.361,99.832z"/>
	<path style="fill:#D2E7F8;" d="M318.223,259.57l93.617-54.404c6.461-1.794,14.468-0.451,23.126,4.547
		c21.388,12.349,38.675,42.289,38.605,66.876c-0.023,8.273-2.012,14.885-5.457,19.543l-93.617,54.404
		c3.445-4.658,5.434-11.269,5.457-19.543c0.07-24.586-17.217-54.528-38.605-66.876C332.69,259.118,324.684,257.776,318.223,259.57z"
		/>
</g>
<path style="fill:#C3DFF7;" d="M202.361,99.832c53.216,30.724,98.477,95.48,115.862,159.739c6.461-1.794,14.468-0.451,23.126,4.547
	c21.388,12.349,38.675,42.289,38.605,66.876c-0.023,8.274-2.012,14.885-5.457,19.543c25.336,22.28,43.977,59.593,43.888,91.136
	c-0.107,37.498-26.652,52.626-59.294,33.781L74.675,311.246C33.297,287.357-0.134,229.451,0,181.915
	c0.135-47.545,33.785-66.722,75.162-42.832c1.916,1.107,3.816,2.31,5.698,3.563C92.882,85.058,142.775,65.43,202.361,99.832z"/>
<g>
</g>
<g>
</g>
<g>
</g>
<g>
</g>
<g>
</g>
<g>
</g>
<g>
</g>
<g>
</g>
<g>
</g>
<g>
</g>
<g>
</g>
<g>
</g>
<g>
</g>
<g>
</g>
<g>
</g>
</svg>
