<svg id="Layer_1" data-name="Layer 1" xmlns="http://www.w3.org/2000/svg" viewBox="0 0 1920 148.37"><defs><style>.cls-1{fill:#fff;}</style></defs><title>wave-bottom</title><path class="cls-1" d="M1920,156.33c-2.89-.09-5.79-.15-8.71-.15-41.27,0-70.78,14.47-108.19,25.24-36.15,10.41-76.42-9.13-110.79-18.31a227.38,227.38,0,0,0-156.88,15.25c-9.67,4.73-19.51,10.28-30.28,10.32-10.2,0-19.64-4.9-28.9-9.17-64.1-29.58-140.55-31.12-205.79-4.14C1256.76,181,1242.77,188,1228,187c-10.81-.77-20.78-5.79-30.73-10.1-65.3-28.3-142.54-27.62-207.34,1.83-9.92,4.5-20.1,9.77-31,9.33-9-.36-17.3-4.59-25.49-8.33-68.26-31.1-149.94-31.17-218.26-.2-8.54,3.88-17.23,8.3-26.61,8.53-10.64.27-20.56-4.87-30.25-9.28-64.81-29.52-142.14-30.21-207.46-1.85-10.59,4.6-21.25,10-32.79,10.47-14,.56-27.13-6.26-40-11.82-59.24-25.52-128.69-26.28-188.48-2.07-30.13,12.21-47.71,16.23-76.91,3.28-32.22-14.29-68.84-20.6-103.93-20.6-2.92,0-5.82.06-8.71.15V304H1920Z" transform="translate(0 -155.63)"/></svg>