<svg xmlns="http://www.w3.org/2000/svg" viewBox="0 0 4344 24" width="4344" height="24"><path d="M19 3H5c-.55 0-1.05.225-1.413.587C3.225 3.95 3 4.45 3 5v14c0 .55.225 1.05.587 1.413C3.95 20.775 4.45 21 5 21h14c.55 0 1.05-.225 1.413-.587.362-.363.587-.863.587-1.413V5c0-.55-.225-1.05-.587-1.413C20.05 3.225 19.55 3 19 3zM9 17H7v-7h2v7m4 0h-2V7h2v10m4 0h-2v-4h2v4M43 3H29c-.55 0-1.05.225-1.413.587C27.225 3.95 27 4.45 27 5v14c0 .55.225 1.05.587 1.413.363.362.863.587 1.413.587h14c.55 0 1.05-.225 1.413-.587.362-.363.587-.863.587-1.413V5c0-.55-.225-1.05-.587-1.413C44.05 3.225 43.55 3 43 3zM33 17h-2v-7h2v7m4 0h-2V7h2v10m4 0h-2v-4h2v4M67 3H53c-.55 0-1.05.225-1.413.587C51.225 3.95 51 4.45 51 5v14c0 .55.225 1.05.587 1.413.363.362.863.587 1.413.587h14c.55 0 1.05-.225 1.413-.587.362-.363.587-.863.587-1.413V5c0-.55-.225-1.05-.587-1.413C68.05 3.225 67.55 3 67 3zM57 17h-2V9.999h2V17m4 0h-2V7.001h2V17m4 0h-2v-4.001h2V17M91 3H77c-.55 0-1.05.225-1.413.587C75.225 3.95 75 4.45 75 5v14c0 .55.225 1.05.587 1.413.363.362.863.587 1.413.587h14c.55 0 1.05-.225 1.413-.587.362-.363.587-.863.587-1.413V5c0-.55-.225-1.05-.587-1.413C92.05 3.225 91.55 3 91 3zM81 17h-2V9.999h2V17m4 0h-2V7.002h2V17m4 0h-2v-4.002h2V17M115 3h-14c-.55 0-1.05.225-1.413.587C99.225 3.95 99 4.45 99 5v14c0 .55.225 1.05.587 1.413.363.362.863.587 1.413.587h14c.55 0 1.05-.225 1.413-.587.362-.363.587-.863.587-1.413V5c0-.55-.225-1.05-.587-1.413C116.05 3.225 115.55 3 115 3zm-10 14h-2V9.997h2V17m4 0h-2V7.004h2V17m4 0h-2v-4.004h2V17M139 3h-14c-.55 0-1.05.225-1.413.587C123.225 3.95 123 4.45 123 5v14c0 .55.225 1.05.587 1.413.363.362.863.587 1.413.587h14c.55 0 1.05-.225 1.413-.587.362-.363.587-.863.587-1.413V5c0-.55-.225-1.05-.587-1.413C140.05 3.225 139.55 3 139 3zm-10 14h-2V9.996h2V17m4 0h-2V7.007h2V17m4 0h-2v-4.006h2V17M163 3h-14c-.55 0-1.05.225-1.413.587C147.225 3.95 147 4.45 147 5v14c0 .55.225 1.05.587 1.413.363.362.863.587 1.413.587h14c.55 0 1.05-.225 1.413-.587.362-.363.587-.863.587-1.413V5c0-.55-.225-1.05-.587-1.413C164.05 3.225 163.55 3 163 3zm-10 14h-2V9.994h2V17m4 0h-2V7.01h2V17m4 0h-2v-4.008h2V17M187 3h-14c-.55 0-1.05.225-1.413.587C171.225 3.95 171 4.45 171 5v14c0 .55.225 1.05.587 1.413.363.362.863.587 1.413.587h14c.55 0 1.05-.225 1.413-.587.362-.363.587-.863.587-1.413V5c0-.55-.225-1.05-.587-1.413C188.05 3.225 187.55 3 187 3zm-10 14h-2V9.992h2V17m4 0h-2V7.013h2V17m4 0h-2v-4.011h2V17M211 3h-14c-.55 0-1.05.225-1.413.587C195.225 3.95 195 4.45 195 5v14c0 .55.225 1.05.587 1.413.363.362.863.587 1.413.587h14c.55 0 1.05-.225 1.413-.587.362-.363.587-.863.587-1.413V5c0-.55-.225-1.05-.587-1.413C212.05 3.225 211.55 3 211 3zm-10 14h-2V9.989h2V17m4 0h-2V7.018h2V17m4 0h-2v-4.015h2V17M235 3h-14c-.55 0-1.05.225-1.413.587C219.225 3.95 219 4.45 219 5v14c0 .55.225 1.05.587 1.413.363.362.863.587 1.413.587h14c.55 0 1.05-.225 1.413-.587.362-.363.587-.863.587-1.413V5c0-.55-.225-1.05-.587-1.413C236.05 3.225 235.55 3 235 3zm-10 14h-2V9.986h2V17m4 0h-2V7.023h2V17m4 0h-2v-4.019h2V17M259 3h-14c-.55 0-1.05.225-1.413.587C243.225 3.95 243 4.45 243 5v14c0 .55.225 1.05.587 1.413.363.362.863.587 1.413.587h14c.55 0 1.05-.225 1.413-.587.362-.363.587-.863.587-1.413V5c0-.55-.225-1.05-.587-1.413C260.05 3.225 259.55 3 259 3zm-10 14h-2V9.983h2V17m4 0h-2V7.028h2V17m4 0h-2v-4.024h2V17M283 3h-14c-.55 0-1.05.225-1.413.587C267.225 3.95 267 4.45 267 5v14c0 .55.225 1.05.587 1.413.363.362.863.587 1.413.587h14c.55 0 1.05-.225 1.413-.587.362-.363.587-.863.587-1.413V5c0-.55-.225-1.05-.587-1.413C284.05 3.225 283.55 3 283 3zm-10 14h-2V9.979h2V17m4 0h-2V7.035h2V17m4 0h-2v-4.03h2V17M307 3h-14c-.55 0-1.05.225-1.413.587C291.225 3.95 291 4.45 291 5v14c0 .55.225 1.05.587 1.413.363.362.863.587 1.413.587h14c.55 0 1.05-.225 1.413-.587.362-.363.587-.863.587-1.413V5c0-.55-.225-1.05-.587-1.413C308.05 3.225 307.55 3 307 3zm-10 14h-2V9.974h2V17m4 0h-2V7.042h2V17m4 0h-2v-4.036h2V17M331 3h-14c-.55 0-1.05.225-1.413.587C315.225 3.95 315 4.45 315 5v14c0 .55.225 1.05.587 1.413.363.362.863.587 1.413.587h14c.55 0 1.05-.225 1.413-.587.362-.363.587-.863.587-1.413V5c0-.55-.225-1.05-.587-1.413C332.05 3.225 331.55 3 331 3zm-10 14h-2V9.97h2V17m4 0h-2V7.049h2V17m4 0h-2v-4.043h2V17M355 3h-14c-.55 0-1.05.225-1.413.587C339.225 3.95 339 4.45 339 5v14c0 .55.225 1.05.587 1.413.363.362.863.587 1.413.587h14c.55 0 1.05-.225 1.413-.587.362-.363.587-.863.587-1.413V5c0-.55-.225-1.05-.587-1.413C356.05 3.225 355.55 3 355 3zm-10 14h-2V9.964h2V17m4 0h-2V7.058h2V17m4 0h-2v-4.05h2V17M379 3h-14c-.55 0-1.05.225-1.413.587C363.225 3.95 363 4.45 363 5v14c0 .55.225 1.05.587 1.413.363.362.863.587 1.413.587h14c.55 0 1.05-.225 1.413-.587.362-.363.587-.863.587-1.413V5c0-.55-.225-1.05-.587-1.413C380.05 3.225 379.55 3 379 3zm-10 14h-2V9.959h2V17m4 0h-2V7.068h2V17m4 0h-2v-4.058h2V17M403 3h-14c-.55 0-1.05.225-1.413.587C387.225 3.95 387 4.45 387 5v14c0 .55.225 1.05.587 1.413.363.362.863.587 1.413.587h14c.55 0 1.05-.225 1.413-.587.362-.363.587-.863.587-1.413V5c0-.55-.225-1.05-.587-1.413C404.05 3.225 403.55 3 403 3zm-10 14h-2V9.952h2V17m4 0h-2V7.078h2V17m4 0h-2v-4.067h2V17M427 3h-14c-.55 0-1.05.225-1.413.587C411.225 3.95 411 4.45 411 5v14c0 .55.225 1.05.587 1.413.363.362.863.587 1.413.587h14c.55 0 1.05-.225 1.413-.587.362-.363.587-.863.587-1.413V5c0-.55-.225-1.05-.587-1.413C428.05 3.225 427.55 3 427 3zm-10 14h-2V9.945h2V17m4 0h-2V7.089h2V17m4 0h-2v-4.077h2V17M451 3h-14c-.549 0-1.05.225-1.413.587-.362.363-.587.864-.587 1.413v14c0 .549.225 1.05.587 1.413.363.362.864.587 1.413.587h14c.549 0 1.05-.225 1.413-.587.362-.363.587-.864.587-1.413V5c0-.549-.225-1.05-.587-1.413C452.05 3.225 451.549 3 451 3zm-10 14h-2V9.938h2V17m4 0h-2V7.101h2V17m4 0h-2v-4.087h2V17M475 3h-14c-.549 0-1.05.225-1.413.587-.362.363-.587.864-.587 1.413v14c0 .549.225 1.05.587 1.413.363.362.864.587 1.413.587h14c.549 0 1.05-.225 1.413-.587.362-.363.587-.864.587-1.413V5c0-.549-.225-1.05-.587-1.413C476.05 3.225 475.549 3 475 3zm-10 14h-2V9.93h2V17m4 0h-2V7.114h2V17m4 0h-2v-4.098h2V17M499 3h-14c-.549 0-1.05.225-1.413.587-.362.363-.587.864-.587 1.413v14c0 .549.225 1.05.587 1.413.363.362.864.587 1.413.587h14c.549 0 1.05-.225 1.413-.587.362-.363.587-.864.587-1.413V5c0-.549-.225-1.05-.587-1.413C500.05 3.225 499.549 3 499 3zm-10 14h-2V9.921h2V17m4 0h-2V7.128h2V17m4 0h-2v-4.111h2V17M523 3h-14c-.549 0-1.05.224-1.413.587S507 4.451 507 5v14c0 .549.224 1.05.587 1.413S508.451 21 509 21h14c.549 0 1.05-.224 1.413-.587S525 19.549 525 19V5c0-.549-.224-1.05-.587-1.413S523.549 3 523 3zm-10 14h-2V9.912h2V17m4 0h-2V7.143h2V17m4 0h-2v-4.124h2V17M547 3h-14c-.549 0-1.05.224-1.413.587S531 4.451 531 5v14c0 .549.224 1.05.587 1.413S532.451 21 533 21h14c.549 0 1.05-.224 1.413-.587S549 19.549 549 19V5c0-.549-.224-1.05-.587-1.413S547.549 3 547 3zm-10 14h-2V9.902h2V17m4 0h-2V7.16h2V17m4 0h-2v-4.137h2V17M571 3h-14c-.549 0-1.05.224-1.413.587S555 4.451 555 5v14c0 .549.224 1.05.587 1.413S556.451 21 557 21h14c.549 0 1.05-.224 1.413-.587S573 19.549 573 19V5c0-.549-.224-1.05-.587-1.413S571.549 3 571 3zm-10 14h-2V9.891h2V17m4 0h-2V7.177h2V17m4 0h-2v-4.152h2V17M595 3h-14c-.549 0-1.049.224-1.413.587-.363.364-.587.864-.587 1.413v14c0 .549.224 1.049.587 1.413.364.363.864.587 1.413.587h14c.549 0 1.049-.224 1.413-.587.363-.364.587-.864.587-1.413V5c0-.549-.224-1.049-.587-1.413C596.049 3.224 595.549 3 595 3zm-10 14h-2V9.88h2V17m4 0h-2V7.195h2V17m4 0h-2v-4.168h2V17M619 3h-14c-.549 0-1.049.224-1.413.587-.363.364-.587.864-.587 1.413v14c0 .549.224 1.049.587 1.413.364.363.864.587 1.413.587h14c.549 0 1.049-.224 1.413-.587.363-.364.587-.864.587-1.413V5c0-.549-.224-1.049-.587-1.413C620.049 3.224 619.549 3 619 3zm-10 14h-2V9.868h2V17m4 0h-2V7.215h2V17m4 0h-2v-4.185h2V17M643 3h-14c-.549 0-1.049.224-1.413.587-.363.364-.587.864-.587 1.413v14c0 .549.224 1.049.587 1.413.364.363.864.587 1.413.587h14c.549 0 1.049-.224 1.413-.587.363-.364.587-.864.587-1.413V5c0-.549-.224-1.049-.587-1.413C644.049 3.224 643.549 3 643 3zm-10 14h-2V9.855h2V17m4 0h-2V7.236h2V17m4 0h-2v-4.203h2V17M667 3h-14c-.549 0-1.049.224-1.413.587-.363.364-.587.864-.587 1.413v14c0 .549.224 1.049.587 1.413.364.363.864.587 1.413.587h14c.549 0 1.049-.224 1.413-.587.363-.364.587-.864.587-1.413V5c0-.549-.224-1.049-.587-1.413C668.049 3.224 667.549 3 667 3zm-10 14h-2V9.842h2V17m4 0h-2V7.258h2V17m4 0h-2v-4.222h2V17M691 3h-14c-.549 0-1.049.224-1.413.587-.363.364-.587.864-.587 1.413v14c0 .549.224 1.049.587 1.413.364.363.864.587 1.413.587h14c.549 0 1.049-.224 1.413-.587.363-.364.587-.864.587-1.413V5c0-.549-.224-1.049-.587-1.413C692.049 3.224 691.549 3 691 3zm-10 14h-2V9.827h2V17m4 0h-2V7.281h2V17m4 0h-2v-4.243h2V17M715 3h-14c-.548 0-1.049.224-1.413.587-.363.364-.587.865-.587 1.413v14c0 .548.224 1.049.587 1.413.364.363.865.587 1.413.587h14c.548 0 1.049-.224 1.413-.587.363-.364.587-.865.587-1.413V5c0-.548-.224-1.049-.587-1.413C716.049 3.224 715.548 3 715 3zm-10 14h-2V9.812h2V17m4 0h-2V7.306h2V17m4 0h-2v-4.264h2V17M739 3h-14c-.548 0-1.049.224-1.413.587-.363.364-.587.865-.587 1.413v14c0 .548.224 1.049.587 1.413.364.363.865.587 1.413.587h14c.548 0 1.049-.224 1.413-.587.363-.364.587-.865.587-1.413V5c0-.548-.224-1.049-.587-1.413C740.049 3.224 739.548 3 739 3zm-10 14h-2V9.796h2V17m4 0h-2V7.333h2V17m4 0h-2v-4.287h2V17M763 3h-14c-.548 0-1.049.224-1.413.587-.363.364-.587.865-.587 1.413v14c0 .548.224 1.049.587 1.413.364.363.865.587 1.413.587h14c.548 0 1.049-.224 1.413-.587.363-.364.587-.865.587-1.413V5c0-.548-.224-1.049-.587-1.413C764.049 3.224 763.548 3 763 3zm-10 14h-2V9.779h2V17m4 0h-2V7.361h2V17m4 0h-2v-4.311h2V17M787 3h-14c-.548 0-1.049.224-1.413.587-.363.364-.587.865-.587 1.413v14c0 .548.224 1.049.587 1.413.364.363.865.587 1.413.587h14c.548 0 1.049-.224 1.413-.587.363-.364.587-.865.587-1.413V5c0-.548-.224-1.049-.587-1.413C788.049 3.224 787.548 3 787 3zm-10 14h-2V9.761h2V17m4 0h-2V7.39h2V17m4 0h-2v-4.336h2V17M811 3h-14c-.548 0-1.049.223-1.413.587-.364.364-.587.865-.587 1.413v14c0 .548.223 1.049.587 1.413.364.364.865.587 1.413.587h14c.548 0 1.049-.223 1.413-.587.364-.364.587-.865.587-1.413V5c0-.548-.223-1.049-.587-1.413C812.049 3.223 811.548 3 811 3zm-10 14h-2V9.742h2V17m4 0h-2V7.421h2V17m4 0h-2v-4.363h2V17M835 3h-14c-.548 0-1.049.223-1.413.587-.364.364-.587.865-.587 1.413v14c0 .548.223 1.049.587 1.413.364.364.865.587 1.413.587h14c.548 0 1.049-.223 1.413-.587.364-.364.587-.865.587-1.413V5c0-.548-.223-1.049-.587-1.413C836.049 3.223 835.548 3 835 3zm-10 14h-2V9.722h2V17m4 0h-2V7.454h2V17m4 0h-2v-4.391h2V17M859 3h-14c-.548 0-1.049.223-1.413.587-.364.364-.587.865-.587 1.413v14c0 .548.223 1.049.587 1.413.364.364.865.587 1.413.587h14c.548 0 1.049-.223 1.413-.587.364-.364.587-.865.587-1.413V5c0-.548-.223-1.049-.587-1.413C860.049 3.223 859.548 3 859 3zm-10 14h-2V9.701h2V17m4 0h-2V7.488h2V17m4 0h-2v-4.42h2V17M883 3h-14c-.547 0-1.049.223-1.413.587-.364.364-.587.866-.587 1.413v14c0 .547.223 1.049.587 1.413.364.364.866.587 1.413.587h14c.547 0 1.049-.223 1.413-.587.364-.364.587-.866.587-1.413V5c0-.547-.223-1.049-.587-1.413C884.049 3.223 883.547 3 883 3zm-10 14h-2V9.679h2V17m4 0h-2V7.524h2V17m4 0h-2v-4.451h2V17M907 3h-14c-.547 0-1.048.223-1.413.587-.364.365-.587.866-.587 1.413v14c0 .547.223 1.048.587 1.413.365.364.866.587 1.413.587h14c.547 0 1.048-.223 1.413-.587.364-.365.587-.866.587-1.413V5c0-.547-.223-1.048-.587-1.413C908.048 3.223 907.547 3 907 3zm-10 14h-2V9.655h2V17m4 0h-2V7.561h2V17m4 0h-2v-4.484h2V17M931 3h-14c-.547 0-1.048.223-1.413.587-.364.365-.587.866-.587 1.413v14c0 .547.223 1.048.587 1.413.365.364.866.587 1.413.587h14c.547 0 1.048-.223 1.413-.587.364-.365.587-.866.587-1.413V5c0-.547-.223-1.048-.587-1.413C932.048 3.223 931.547 3 931 3zm-10 14h-2V9.631h2V17m4 0h-2V7.601h2V17m4 0h-2v-4.518h2V17M955 3h-14c-.547 0-1.048.223-1.413.587-.364.365-.587.866-.587 1.413v14c0 .547.223 1.048.587 1.413.365.364.866.587 1.413.587h14c.547 0 1.048-.223 1.413-.587.364-.365.587-.866.587-1.413V5c0-.547-.223-1.048-.587-1.413C956.048 3.223 955.547 3 955 3zm-10 14h-2V9.606h2V17m4 0h-2V7.642h2V17m4 0h-2v-4.553h2V17M979 3h-14c-.546 0-1.048.223-1.413.587-.364.365-.587.867-.587 1.413v14c0 .546.223 1.048.587 1.413.365.364.867.587 1.413.587h14c.546 0 1.048-.223 1.413-.587.364-.365.587-.867.587-1.413V5c0-.546-.223-1.048-.587-1.413C980.048 3.223 979.546 3 979 3zm-10 14h-2V9.58h2V17m4 0h-2V7.685h2V17m4 0h-2v-4.59h2V17M1003 3h-14c-.546 0-1.048.222-1.413.587S987 4.454 987 5v14c0 .546.222 1.048.587 1.413S988.454 21 989 21h14c.546 0 1.048-.222 1.413-.587s.587-.867.587-1.413V5c0-.546-.222-1.048-.587-1.413S1003.546 3 1003 3zm-10 14h-2V9.552h2V17m4 0h-2V7.73h2V17m4 0h-2v-4.629h2V17M1027 3h-14c-.546 0-1.048.222-1.413.587S1011 4.454 1011 5v14c0 .546.222 1.048.587 1.413s.867.587 1.413.587h14c.546 0 1.048-.222 1.413-.587s.587-.867.587-1.413V5c0-.546-.222-1.048-.587-1.413S1027.546 3 1027 3zm-10 14h-2V9.524h2V17m4 0h-2V7.776h2V17m4 0h-2v-4.669h2V17M1051 3h-14c-.546 0-1.048.222-1.413.587S1035 4.454 1035 5v14c0 .546.222 1.048.587 1.413s.867.587 1.413.587h14c.546 0 1.048-.222 1.413-.587s.587-.867.587-1.413V5c0-.546-.222-1.048-.587-1.413S1051.546 3 1051 3zm-10 14h-2V9.494h2V17m4 0h-2V7.824h2V17m4 0h-2v-4.71h2V17M1075 3h-14c-.546 0-1.048.222-1.413.587S1059 4.454 1059 5v14c0 .546.222 1.048.587 1.413s.867.587 1.413.587h14c.546 0 1.048-.222 1.413-.587s.587-.867.587-1.413V5c0-.546-.222-1.048-.587-1.413S1075.546 3 1075 3zm-10 14h-2V9.464h2V17m4 0h-2V7.874h2V17m4 0h-2v-4.753h2V17M1099 3h-14c-.545 0-1.047.222-1.413.587-.365.366-.587.868-.587 1.413v14c0 .545.222 1.047.587 1.413.366.365.868.587 1.413.587h14c.545 0 1.047-.222 1.413-.587.365-.366.587-.868.587-1.413V5c0-.545-.222-1.047-.587-1.413-.366-.365-.868-.587-1.413-.587zm-10 14h-2V9.432h2V17m4 0h-2V7.925h2V17m4 0h-2v-4.797h2V17M1123 3h-14c-.545 0-1.047.221-1.413.587-.366.366-.587.868-.587 1.413v14c0 .545.221 1.047.587 1.413.366.366.868.587 1.413.587h14c.545 0 1.047-.221 1.413-.587.366-.366.587-.868.587-1.413V5c0-.545-.221-1.047-.587-1.413-.366-.366-.868-.587-1.413-.587zm-10 14h-2V9.4h2V17m4 0h-2V7.978h2V17m4 0h-2v-4.843h2V17M1147 3h-14c-.545 0-1.047.221-1.413.587-.366.366-.587.868-.587 1.413v14c0 .545.221 1.047.587 1.413.366.366.868.587 1.413.587h14c.545 0 1.047-.221 1.413-.587.366-.366.587-.868.587-1.413V5c0-.545-.221-1.047-.587-1.413-.366-.366-.868-.587-1.413-.587zm-10 14h-2V9.367h2V17m4 0h-2V8.032h2V17m4 0h-2v-4.889h2V17M1171 3h-14c-.544 0-1.047.221-1.413.587-.366.366-.587.869-.587 1.413v14c0 .544.221 1.047.587 1.413.366.366.869.587 1.413.587h14c.544 0 1.047-.221 1.413-.587.366-.366.587-.869.587-1.413V5c0-.544-.221-1.047-.587-1.413-.366-.366-.869-.587-1.413-.587zm-10 14h-2V9.333h2V17m4 0h-2V8.087h2V17m4 0h-2v-4.937h2V17M1195 3h-14c-.544 0-1.047.221-1.413.587-.366.366-.587.869-.587 1.413v14c0 .544.221 1.047.587 1.413.366.366.869.587 1.413.587h14c.544 0 1.047-.221 1.413-.587.366-.366.587-.869.587-1.413V5c0-.544-.221-1.047-.587-1.413-.366-.366-.869-.587-1.413-.587zm-10 14h-2V9.298h2V17m4 0h-2V8.144h2V17m4 0h-2v-4.986h2V17M1219 3h-14c-.544 0-1.047.221-1.413.587-.366.366-.587.869-.587 1.413v14c0 .544.221 1.047.587 1.413.366.366.869.587 1.413.587h14c.544 0 1.047-.221 1.413-.587.366-.366.587-.869.587-1.413V5c0-.544-.221-1.047-.587-1.413-.366-.366-.869-.587-1.413-.587zm-10 14h-2V9.263h2V17m4 0h-2V8.201h2V17m4 0h-2v-5.035h2V17M1243 3h-14c-.544 0-1.046.22-1.413.587S1227 4.456 1227 5v14c0 .544.22 1.046.587 1.413s.869.587 1.413.587h14c.544 0 1.046-.22 1.413-.587s.587-.869.587-1.413V5c0-.544-.22-1.046-.587-1.413S1243.544 3 1243 3zm-10 14h-2V9.227h2V17m4 0h-2V8.259h2V17m4 0h-2v-5.085h2V17M1267 3h-14c-.543 0-1.046.22-1.413.587S1251 4.457 1251 5v14c0 .543.22 1.046.587 1.413s.87.587 1.413.587h14c.543 0 1.046-.22 1.413-.587s.587-.87.587-1.413V5c0-.543-.22-1.046-.587-1.413S1267.543 3 1267 3zm-10 14h-2V9.191h2V17m4 0h-2V8.318h2V17m4 0h-2v-5.136h2V17M1291 3h-14c-.543 0-1.046.22-1.413.587S1275 4.457 1275 5v14c0 .543.22 1.046.587 1.413s.87.587 1.413.587h14c.543 0 1.046-.22 1.413-.587s.587-.87.587-1.413V5c0-.543-.22-1.046-.587-1.413S1291.543 3 1291 3zm-10 14h-2V9.155h2V17m4 0h-2V8.377h2V17m4 0h-2v-5.187h2V17M1315 3h-14c-.543 0-1.046.22-1.413.587S1299 4.457 1299 5v14c0 .543.22 1.046.587 1.413s.87.587 1.413.587h14c.543 0 1.046-.22 1.413-.587s.587-.87.587-1.413V5c0-.543-.22-1.046-.587-1.413S1315.543 3 1315 3zm-10 14h-2V9.118h2V17m4 0h-2V8.436h2V17m4 0h-2v-5.238h2V17M1339 3h-14c-.542 0-1.046.22-1.413.587S1323 4.458 1323 5v14c0 .542.22 1.046.587 1.413s.871.587 1.413.587h14c.542 0 1.046-.22 1.413-.587s.587-.871.587-1.413V5c0-.542-.22-1.046-.587-1.413S1339.542 3 1339 3zm-10 14h-2V9.082h2V17m4 0h-2V8.496h2V17m4 0h-2v-5.289h2V17M1363 3h-14c-.542 0-1.046.219-1.413.587-.368.367-.587.871-.587 1.413v14c0 .542.219 1.046.587 1.413.367.368.871.587 1.413.587h14c.542 0 1.046-.219 1.413-.587.368-.367.587-.871.587-1.413V5c0-.542-.219-1.046-.587-1.413-.367-.368-.871-.587-1.413-.587zm-10 14h-2V9.046h2V17m4 0h-2V8.555h2V17m4 0h-2v-5.34h2V17M1387 3h-14c-.542 0-1.045.219-1.413.587-.368.368-.587.871-.587 1.413v14c0 .542.219 1.045.587 1.413.368.368.871.587 1.413.587h14c.542 0 1.045-.219 1.413-.587.368-.368.587-.871.587-1.413V5c0-.542-.219-1.045-.587-1.413-.368-.368-.871-.587-1.413-.587zm-10 14h-2V9.009h2V17m4 0h-2V8.614h2V17m4 0h-2v-5.391h2V17M1411 3h-14c-.541 0-1.045.219-1.413.587-.368.368-.587.872-.587 1.413v14c0 .541.219 1.045.587 1.413.368.368.872.587 1.413.587h14c.541 0 1.045-.219 1.413-.587.368-.368.587-.872.587-1.413V5c0-.541-.219-1.045-.587-1.413-.368-.368-.872-.587-1.413-.587zm-10 14h-2V8.973h2V17m4 0h-2V8.672h2V17m4 0h-2v-5.441h2V17M1435 3h-14c-.541 0-1.045.219-1.413.587-.368.368-.587.872-.587 1.413v14c0 .541.219 1.045.587 1.413.368.368.872.587 1.413.587h14c.541 0 1.045-.219 1.413-.587.368-.368.587-.872.587-1.413V5c0-.541-.219-1.045-.587-1.413-.368-.368-.872-.587-1.413-.587zm-10 14h-2V8.938h2V17m4 0h-2V8.73h2V17m4 0h-2v-5.491h2V17M1459 3h-14c-.541 0-1.045.219-1.413.587-.368.368-.587.872-.587 1.413v14c0 .541.219 1.045.587 1.413.368.368.872.587 1.413.587h14c.541 0 1.045-.219 1.413-.587.368-.368.587-.872.587-1.413V5c0-.541-.219-1.045-.587-1.413-.368-.368-.872-.587-1.413-.587zm-10 14h-2V8.903h2V17m4 0h-2V8.788h2V17m4 0h-2v-5.541h2V17M1483 3h-14c-.541 0-1.045.218-1.413.587-.369.368-.587.872-.587 1.413v14c0 .541.218 1.045.587 1.413.368.369.872.587 1.413.587h14c.541 0 1.045-.218 1.413-.587.369-.368.587-.872.587-1.413V5c0-.541-.218-1.045-.587-1.413-.368-.369-.872-.587-1.413-.587zm-10 14h-2V8.868h2V17m4 0h-2V8.844h2V17m4 0h-2v-5.59h2V17M1507 3h-14c-.54 0-1.045.218-1.413.587-.369.368-.587.873-.587 1.413v14c0 .54.218 1.045.587 1.413.368.369.873.587 1.413.587h14c.54 0 1.045-.218 1.413-.587.369-.368.587-.873.587-1.413V5c0-.54-.218-1.045-.587-1.413-.368-.369-.873-.587-1.413-.587zm-10 14h-2V8.834h2V17m4 0h-2V8.9h2V17m4 0h-2v-5.638h2V17M1531 3h-14c-.54 0-1.045.218-1.413.587-.369.368-.587.873-.587 1.413v14c0 .54.218 1.044.587 1.413.368.369.873.587 1.413.587h14c.54 0 1.044-.218 1.413-.587S1533 19.54 1533 19V5c0-.54-.218-1.045-.587-1.413-.369-.369-.873-.587-1.413-.587zm-10 14h-2V8.8h2V17m4 0h-2V8.955h2V17m4 0h-2v-5.685h2V17M1555 3h-14c-.54 0-1.044.218-1.413.587S1539 4.46 1539 5v14c0 .54.218 1.044.587 1.413s.873.587 1.413.587h14c.54 0 1.044-.218 1.413-.587S1557 19.54 1557 19V5c0-.54-.218-1.044-.587-1.413S1555.54 3 1555 3zm-10 14h-2V8.767h2V17m4 0h-2V9.009h2V17m4 0h-2v-5.731h2V17M1579 3h-14c-.539 0-1.044.218-1.413.587S1563 4.461 1563 5v14c0 .539.218 1.044.587 1.413s.874.587 1.413.587h14c.539 0 1.044-.218 1.413-.587s.587-.874.587-1.413V5c0-.539-.218-1.044-.587-1.413S1579.539 3 1579 3zm-10 14h-2V8.735h2V17m4 0h-2V9.062h2V17m4 0h-2v-5.777h2V17M1603 3h-14c-.539 0-1.044.217-1.413.587-.37.369-.587.874-.587 1.413v14c0 .539.217 1.044.587 1.413.369.37.874.587 1.413.587h14c.539 0 1.044-.217 1.413-.587.37-.369.587-.874.587-1.413V5c0-.539-.217-1.044-.587-1.413-.369-.37-.874-.587-1.413-.587zm-10 14h-2V8.703h2V17m4 0h-2V9.113h2V17m4 0h-2v-5.821h2V17M1627 3h-14c-.539 0-1.044.217-1.413.587-.37.369-.587.874-.587 1.413v14c0 .539.217 1.044.587 1.413.369.37.874.587 1.413.587h14c.539 0 1.044-.217 1.413-.587.37-.369.587-.874.587-1.413V5c0-.539-.217-1.044-.587-1.413-.369-.37-.874-.587-1.413-.587zm-10 14h-2V8.672h2V17m4 0h-2V9.164h2V17m4 0h-2v-5.865h2V17M1651 3h-14c-.539 0-1.044.217-1.413.587-.37.369-.587.874-.587 1.413v14c0 .539.217 1.044.587 1.413.369.37.874.587 1.413.587h14c.539 0 1.044-.217 1.413-.587.37-.369.587-.874.587-1.413V5c0-.539-.217-1.044-.587-1.413-.369-.37-.874-.587-1.413-.587zm-10 14h-2V8.642h2V17m4 0h-2V9.213h2V17m4 0h-2v-5.907h2V17M1675 3h-14c-.538 0-1.044.217-1.413.587-.37.369-.587.875-.587 1.413v14c0 .538.217 1.044.587 1.413.369.37.875.587 1.413.587h14c.538 0 1.044-.217 1.413-.587.37-.369.587-.875.587-1.413V5c0-.538-.217-1.044-.587-1.413-.369-.37-.875-.587-1.413-.587zm-10 14h-2V8.612h2V17m4 0h-2V9.261h2V17m4 0h-2v-5.949h2V17M1699 3h-14c-.538 0-1.044.217-1.413.587-.37.369-.587.875-.587 1.413v14c0 .538.217 1.044.587 1.413.369.37.875.587 1.413.587h14c.538 0 1.044-.217 1.413-.587.37-.369.587-.875.587-1.413V5c0-.538-.217-1.044-.587-1.413-.369-.37-.875-.587-1.413-.587zm-10 14h-2V8.583h2V17m4 0h-2V9.308h2V17m4 0h-2v-5.99h2V17M1723 3h-14c-.538 0-1.043.217-1.413.587-.37.37-.587.875-.587 1.413v14c0 .538.217 1.043.587 1.413.37.37.875.587 1.413.587h14c.538 0 1.043-.217 1.413-.587.37-.37.587-.875.587-1.413V5c0-.538-.217-1.043-.587-1.413-.37-.37-.875-.587-1.413-.587zm-10 14h-2V8.555h2V17m4 0h-2V9.354h2V17m4 0h-2v-6.029h2V17M1747 3h-14c-.538 0-1.043.216-1.413.587-.371.37-.587.875-.587 1.413v14c0 .538.216 1.043.587 1.413.37.371.875.587 1.413.587h14c.538 0 1.043-.216 1.413-.587.371-.37.587-.875.587-1.413V5c0-.538-.216-1.043-.587-1.413-.37-.371-.875-.587-1.413-.587zm-10 14h-2V8.527h2V17m4 0h-2V9.399h2V17m4 0h-2v-6.068h2V17M1771 3h-14c-.538 0-1.043.216-1.413.587-.371.37-.587.875-.587 1.413v14c0 .538.216 1.043.587 1.413.37.371.875.587 1.413.587h14c.538 0 1.043-.216 1.413-.587.371-.37.587-.875.587-1.413V5c0-.538-.216-1.043-.587-1.413-.37-.371-.875-.587-1.413-.587zm-10 14h-2V8.501h2V17m4 0h-2V9.443h2V17m4 0h-2v-6.105h2V17M1795 3h-14c-.537 0-1.043.216-1.413.587-.371.37-.587.876-.587 1.413v14c0 .537.216 1.043.587 1.413.37.371.876.587 1.413.587h14c.537 0 1.043-.216 1.413-.587.371-.37.587-.876.587-1.413V5c0-.537-.216-1.043-.587-1.413-.37-.371-.876-.587-1.413-.587zm-10 14h-2V8.474h2V17m4 0h-2V9.485h2V17m4 0h-2v-6.142h2V17M1819 3h-14c-.537 0-1.043.216-1.413.587-.371.37-.587.876-.587 1.413v14c0 .537.216 1.043.587 1.413.37.371.876.587 1.413.587h14c.537 0 1.043-.216 1.413-.587.371-.37.587-.876.587-1.413V5c0-.537-.216-1.043-.587-1.413-.37-.371-.876-.587-1.413-.587zm-10 14h-2V8.449h2V17m4 0h-2V9.527h2V17m4 0h-2v-6.178h2V17M1843 3h-14c-.537 0-1.043.216-1.413.587-.371.37-.587.876-.587 1.413v14c0 .537.216 1.043.587 1.413.37.371.876.587 1.413.587h14c.537 0 1.043-.216 1.413-.587.371-.37.587-.876.587-1.413V5c0-.537-.216-1.043-.587-1.413-.37-.371-.876-.587-1.413-.587zm-10 14h-2V8.424h2V17m4 0h-2V9.567h2V17m4 0h-2v-6.213h2V17M1867 3h-14c-.537 0-1.043.216-1.413.587-.371.37-.587.876-.587 1.413v14c0 .537.216 1.043.587 1.413.37.371.876.587 1.413.587h14c.537 0 1.043-.216 1.413-.587.371-.37.587-.876.587-1.413V5c0-.537-.216-1.043-.587-1.413-.37-.371-.876-.587-1.413-.587zm-10 14h-2V8.4h2V17m4 0h-2V9.607h2V17m4 0h-2v-6.247h2V17M1891 3h-14c-.536 0-1.043.216-1.414.586-.37.371-.586.878-.586 1.414v14c0 .536.216 1.043.586 1.414.371.37.878.586 1.414.586h14c.536 0 1.043-.216 1.414-.586.37-.371.586-.878.586-1.414V5c0-.536-.216-1.043-.586-1.414-.371-.37-.878-.586-1.414-.586zm-10 14h-2V8.377h2V17m4 0h-2V9.645h2V17m4 0h-2v-6.28h2V17M1915 3h-14c-.536 0-1.042.215-1.414.586-.371.372-.586.878-.586 1.414v14c0 .536.215 1.042.586 1.414.372.371.878.586 1.414.586h14c.536 0 1.042-.215 1.414-.586.371-.372.586-.878.586-1.414V5c0-.536-.215-1.042-.586-1.414-.372-.371-.878-.586-1.414-.586zm-10 14h-2V8.354h2V17m4 0h-2V9.682h2V17m4 0h-2v-6.312h2V17M1939 3h-14c-.536 0-1.042.215-1.414.586-.371.372-.586.878-.586 1.414v14c0 .536.215 1.042.586 1.414.372.371.878.586 1.414.586h14c.536 0 1.042-.215 1.414-.586.371-.372.586-.878.586-1.414V5c0-.536-.215-1.042-.586-1.414-.372-.371-.878-.586-1.414-.586zm-10 14h-2V8.331h2V17m4 0h-2V9.718h2V17m4 0h-2v-6.343h2V17M1963 3h-14c-.536 0-1.042.215-1.414.586-.371.372-.586.878-.586 1.414v14c0 .536.215 1.042.586 1.414.372.371.878.586 1.414.586h14c.536 0 1.042-.215 1.414-.586.371-.372.586-.878.586-1.414V5c0-.536-.215-1.042-.586-1.414-.372-.371-.878-.586-1.414-.586zm-10 14h-2V8.31h2V17m4 0h-2V9.754h2V17m4 0h-2v-6.373h2V17M1987 3h-14c-.536 0-1.042.215-1.414.586-.371.372-.586.878-.586 1.414v14c0 .536.215 1.042.586 1.414.372.371.878.586 1.414.586h14c.536 0 1.042-.215 1.414-.586.371-.372.586-.878.586-1.414V5c0-.536-.215-1.042-.586-1.414-.372-.371-.878-.586-1.414-.586zm-10 14h-2V8.289h2V17m4 0h-2V9.788h2V17m4 0h-2v-6.403h2V17M2011 3h-14c-.536 0-1.042.215-1.414.586-.371.372-.586.878-.586 1.414v14c0 .536.215 1.042.586 1.414.372.371.878.586 1.414.586h14c.536 0 1.042-.215 1.414-.586.371-.372.586-.878.586-1.414V5c0-.536-.215-1.042-.586-1.414-.372-.371-.878-.586-1.414-.586zm-10 14h-2V8.268h2V17m4 0h-2V9.822h2V17m4 0h-2v-6.432h2V17M2035 3h-14c-.535 0-1.042.215-1.414.586-.371.372-.586.879-.586 1.414v14c0 .535.215 1.042.586 1.414.372.371.879.586 1.414.586h14c.535 0 1.042-.215 1.414-.586.371-.372.586-.879.586-1.414V5c0-.535-.215-1.042-.586-1.414-.372-.371-.879-.586-1.414-.586zm-10 14h-2V8.248h2V17m4 0h-2V9.854h2V17m4 0h-2v-6.46h2V17M2059 3h-14c-.535 0-1.042.215-1.414.586-.371.372-.586.879-.586 1.414v14c0 .535.215 1.042.586 1.414.372.371.879.586 1.414.586h14c.535 0 1.042-.215 1.414-.586.371-.372.586-.879.586-1.414V5c0-.535-.215-1.042-.586-1.414-.372-.371-.879-.586-1.414-.586zm-10 14h-2V8.229h2V17m4 0h-2V9.886h2V17m4 0h-2v-6.487h2V17M2083 3h-14c-.535 0-1.042.215-1.414.586-.371.372-.586.879-.586 1.414v14c0 .535.215 1.042.586 1.414.372.371.879.586 1.414.586h14c.535 0 1.042-.215 1.414-.586.371-.372.586-.879.586-1.414V5c0-.535-.215-1.042-.586-1.414-.372-.371-.879-.586-1.414-.586zm-10 14h-2V8.21h2V17m4 0h-2V9.917h2V17m4 0h-2v-6.514h2V17M2107 3h-14c-.535 0-1.042.214-1.414.586-.372.372-.586.879-.586 1.414v14c0 .535.214 1.042.586 1.414.372.372.879.586 1.414.586h14c.535 0 1.042-.214 1.414-.586.372-.372.586-.879.586-1.414V5c0-.535-.214-1.042-.586-1.414-.372-.372-.879-.586-1.414-.586zm-10 14h-2V8.191h2V17m4 0h-2V9.947h2V17m4 0h-2v-6.54h2V17M2131 3h-14c-.535 0-1.042.214-1.414.586-.372.372-.586.879-.586 1.414v14c0 .535.214 1.042.586 1.414.372.372.879.586 1.414.586h14c.535 0 1.042-.214 1.414-.586.372-.372.586-.879.586-1.414V5c0-.535-.214-1.042-.586-1.414-.372-.372-.879-.586-1.414-.586zm-10 14h-2V8.173h2V17m4 0h-2V9.976h2V17m4 0h-2v-6.565h2V17M2155 3h-14c-.535 0-1.042.214-1.414.586-.372.372-.586.879-.586 1.414v14c0 .535.214 1.042.586 1.414.372.372.879.586 1.414.586h14c.535 0 1.042-.214 1.414-.586.372-.372.586-.879.586-1.414V5c0-.535-.214-1.042-.586-1.414-.372-.372-.879-.586-1.414-.586zm-10 14h-2V8.156h2V17m4 0h-2v-6.995h2V17m4 0h-2v-6.59h2V17M2179 3h-14c-.534 0-1.041.214-1.414.586-.372.373-.586.88-.586 1.414v14c0 .534.214 1.041.586 1.414.373.372.88.586 1.414.586h14c.534 0 1.041-.214 1.414-.586.372-.373.586-.88.586-1.414V5c0-.534-.214-1.041-.586-1.414-.373-.372-.88-.586-1.414-.586zm-10 14h-2V8.139h2V17m4 0h-2v-6.968h2V17m4 0h-2v-6.614h2V17M2203 3h-14c-.534 0-1.041.214-1.414.586-.372.373-.586.88-.586 1.414v14c0 .534.214 1.041.586 1.414.373.372.88.586 1.414.586h14c.534 0 1.041-.214 1.414-.586.372-.373.586-.88.586-1.414V5c0-.534-.214-1.041-.586-1.414-.373-.372-.88-.586-1.414-.586zm-10 14h-2V8.122h2V17m4 0h-2v-6.941h2V17m4 0h-2v-6.637h2V17M2227 3h-14c-.534 0-1.041.214-1.414.586-.372.373-.586.88-.586 1.414v14c0 .534.214 1.041.586 1.414.373.372.88.586 1.414.586h14c.534 0 1.041-.214 1.414-.586.372-.373.586-.88.586-1.414V5c0-.534-.214-1.041-.586-1.414-.373-.372-.88-.586-1.414-.586zm-10 14h-2V8.106h2V17m4 0h-2v-6.914h2V17m4 0h-2v-6.66h2V17M2251 3h-14c-.534 0-1.041.214-1.414.586-.372.373-.586.88-.586 1.414v14c0 .534.214 1.041.586 1.414.373.372.88.586 1.414.586h14c.534 0 1.041-.214 1.414-.586.372-.373.586-.88.586-1.414V5c0-.534-.214-1.041-.586-1.414-.373-.372-.88-.586-1.414-.586zm-10 14h-2V8.09h2V17m4 0h-2v-6.889h2V17m4 0h-2v-6.682h2V17M2275 3h-14c-.534 0-1.041.214-1.414.586-.372.373-.586.88-.586 1.414v14c0 .534.214 1.041.586 1.414.373.372.88.586 1.414.586h14c.534 0 1.041-.214 1.414-.586.372-.373.586-.88.586-1.414V5c0-.534-.214-1.041-.586-1.414-.373-.372-.88-.586-1.414-.586zm-10 14h-2V8.075h2V17m4 0h-2v-6.864h2V17m4 0h-2v-6.703h2V17M2299 3h-14c-.534 0-1.041.214-1.414.586-.372.373-.586.88-.586 1.414v14c0 .534.214 1.041.586 1.414.373.372.88.586 1.414.586h14c.534 0 1.041-.214 1.414-.586.372-.373.586-.88.586-1.414V5c0-.534-.214-1.041-.586-1.414-.373-.372-.88-.586-1.414-.586zm-10 14h-2V8.06h2V17m4 0h-2v-6.839h2V17m4 0h-2v-6.724h2V17M2323 3h-14c-.534 0-1.041.214-1.414.586-.372.373-.586.88-.586 1.414v14c0 .534.214 1.041.586 1.414.373.372.88.586 1.414.586h14c.534 0 1.041-.214 1.414-.586.372-.373.586-.88.586-1.414V5c0-.534-.214-1.041-.586-1.414-.373-.372-.88-.586-1.414-.586zm-10 14h-2V8.045h2V17m4 0h-2v-6.816h2V17m4 0h-2v-6.745h2V17M2347 3h-14c-.534 0-1.041.214-1.414.586-.372.373-.586.88-.586 1.414v14c0 .534.214 1.041.586 1.414.373.372.88.586 1.414.586h14c.534 0 1.041-.214 1.414-.586.372-.373.586-.88.586-1.414V5c0-.534-.214-1.041-.586-1.414-.373-.372-.88-.586-1.414-.586zm-10 14h-2V8.031h2V17m4 0h-2v-6.792h2V17m4 0h-2v-6.765h2V17M2371 3h-14c-.533 0-1.041.213-1.414.586S2355 4.467 2355 5v14c0 .533.213 1.041.586 1.414s.881.586 1.414.586h14c.533 0 1.041-.213 1.414-.586s.586-.881.586-1.414V5c0-.533-.213-1.041-.586-1.414S2371.533 3 2371 3zm-10 14h-2V8.017h2V17m4 0h-2v-6.77h2V17m4 0h-2v-6.784h2V17M2395 3h-14c-.533 0-1.041.213-1.414.586S2379 4.467 2379 5v14c0 .533.213 1.041.586 1.414s.881.586 1.414.586h14c.533 0 1.041-.213 1.414-.586s.586-.881.586-1.414V5c0-.533-.213-1.041-.586-1.414S2395.533 3 2395 3zm-10 14h-2V8.004h2V17m4 0h-2v-6.748h2V17m4 0h-2v-6.803h2V17M2419 3h-14c-.533 0-1.041.213-1.414.586S2403 4.467 2403 5v14c0 .533.213 1.041.586 1.414s.881.586 1.414.586h14c.533 0 1.041-.213 1.414-.586s.586-.881.586-1.414V5c0-.533-.213-1.041-.586-1.414S2419.533 3 2419 3zm-10 14h-2V7.991h2V17m4 0h-2v-6.727h2V17m4 0h-2v-6.821h2V17M2443 3h-14c-.533 0-1.041.213-1.414.586S2427 4.467 2427 5v14c0 .533.213 1.041.586 1.414s.881.586 1.414.586h14c.533 0 1.041-.213 1.414-.586s.586-.881.586-1.414V5c0-.533-.213-1.041-.586-1.414S2443.533 3 2443 3zm-10 14h-2V7.978h2V17m4 0h-2v-6.706h2V17m4 0h-2v-6.839h2V17M2467 3h-14c-.533 0-1.041.213-1.414.586S2451 4.467 2451 5v14c0 .533.213 1.041.586 1.414s.881.586 1.414.586h14c.533 0 1.041-.213 1.414-.586s.586-.881.586-1.414V5c0-.533-.213-1.041-.586-1.414S2467.533 3 2467 3zm-10 14h-2V7.966h2V17m4 0h-2v-6.686h2V17m4 0h-2v-6.856h2V17M2491 3h-14c-.533 0-1.041.213-1.414.586S2475 4.467 2475 5v14c0 .533.213 1.041.586 1.414s.881.586 1.414.586h14c.533 0 1.041-.213 1.414-.586s.586-.881.586-1.414V5c0-.533-.213-1.041-.586-1.414S2491.533 3 2491 3zm-10 14h-2V7.954h2V17m4 0h-2v-6.666h2V17m4 0h-2v-6.873h2V17M2515 3h-14c-.533 0-1.041.213-1.414.586S2499 4.467 2499 5v14c0 .533.213 1.041.586 1.414s.881.586 1.414.586h14c.533 0 1.041-.213 1.414-.586s.586-.881.586-1.414V5c0-.533-.213-1.041-.586-1.414S2515.533 3 2515 3zm-10 14h-2V7.942h2V17m4 0h-2v-6.647h2V17m4 0h-2v-6.89h2V17M2539 3h-14c-.533 0-1.041.213-1.414.586S2523 4.467 2523 5v14c0 .533.213 1.041.586 1.414s.881.586 1.414.586h14c.533 0 1.041-.213 1.414-.586s.586-.881.586-1.414V5c0-.533-.213-1.041-.586-1.414S2539.533 3 2539 3zm-10 14h-2V7.93h2V17m4 0h-2v-6.628h2V17m4 0h-2v-6.906h2V17M2563 3h-14c-.533 0-1.04.213-1.414.586-.373.374-.586.881-.586 1.414v14c0 .533.213 1.04.586 1.414.374.373.881.586 1.414.586h14c.533 0 1.04-.213 1.414-.586.373-.374.586-.881.586-1.414V5c0-.533-.213-1.04-.586-1.414-.374-.373-.881-.586-1.414-.586zm-10 14h-2V7.919h2V17m4 0h-2v-6.61h2V17m4 0h-2v-6.922h2V17M2587 3h-14c-.533 0-1.04.213-1.414.586-.373.374-.586.881-.586 1.414v14c0 .533.213 1.04.586 1.414.374.373.881.586 1.414.586h14c.533 0 1.04-.213 1.414-.586.373-.374.586-.881.586-1.414V5c0-.533-.213-1.04-.586-1.414-.374-.373-.881-.586-1.414-.586zm-10 14h-2V7.908h2V17m4 0h-2v-6.592h2V17m4 0h-2v-6.937h2V17M2611 3h-14c-.532 0-1.04.213-1.414.586-.373.374-.586.882-.586 1.414v14c0 .532.213 1.04.586 1.414.374.373.882.586 1.414.586h14c.532 0 1.04-.213 1.414-.586.373-.374.586-.882.586-1.414V5c0-.532-.213-1.04-.586-1.414-.374-.373-.882-.586-1.414-.586zm-10 14h-2V7.898h2V17m4 0h-2v-6.575h2V17m4 0h-2v-6.952h2V17M2635 3h-14c-.532 0-1.04.213-1.414.586-.373.374-.586.882-.586 1.414v14c0 .532.213 1.04.586 1.414.374.373.882.586 1.414.586h14c.532 0 1.04-.213 1.414-.586.373-.374.586-.882.586-1.414V5c0-.532-.213-1.04-.586-1.414-.374-.373-.882-.586-1.414-.586zm-10 14h-2V7.887h2V17m4 0h-2v-6.558h2V17m4 0h-2v-6.967h2V17M2659 3h-14c-.532 0-1.04.213-1.414.586-.373.374-.586.882-.586 1.414v14c0 .532.213 1.04.586 1.414.374.373.882.586 1.414.586h14c.532 0 1.04-.213 1.414-.586.373-.374.586-.882.586-1.414V5c0-.532-.213-1.04-.586-1.414-.374-.373-.882-.586-1.414-.586zm-10 14h-2V7.877h2V17m4 0h-2v-6.542h2V17m4 0h-2v-6.981h2V17M2683 3h-14c-.532 0-1.04.213-1.414.586-.373.374-.586.882-.586 1.414v14c0 .532.213 1.04.586 1.414.374.373.882.586 1.414.586h14c.532 0 1.04-.213 1.414-.586.373-.374.586-.882.586-1.414V5c0-.532-.213-1.04-.586-1.414-.374-.373-.882-.586-1.414-.586zm-10 14h-2V7.867h2V17m4 0h-2v-6.526h2V17m4 0h-2v-6.994h2V17M2707 3h-14c-.532 0-1.04.213-1.414.586-.373.374-.586.882-.586 1.414v14c0 .532.213 1.04.586 1.414.374.373.882.586 1.414.586h14c.532 0 1.04-.213 1.414-.586.373-.374.586-.882.586-1.414V5c0-.532-.213-1.04-.586-1.414-.374-.373-.882-.586-1.414-.586zm-10 14h-2V7.858h2V17m4 0h-2v-6.51h2V17m4 0h-2V9.992h2V17M2731 3h-14c-.532 0-1.04.212-1.414.586-.374.374-.586.882-.586 1.414v14c0 .532.212 1.04.586 1.414.374.374.882.586 1.414.586h14c.532 0 1.04-.212 1.414-.586.374-.374.586-.882.586-1.414V5c0-.532-.212-1.04-.586-1.414-.374-.374-.882-.586-1.414-.586zm-10 14h-2V7.849h2V17m4 0h-2v-6.495h2V17m4 0h-2V9.979h2V17M2755 3h-14c-.532 0-1.04.212-1.414.586-.374.374-.586.882-.586 1.414v14c0 .532.212 1.04.586 1.414.374.374.882.586 1.414.586h14c.532 0 1.04-.212 1.414-.586.374-.374.586-.882.586-1.414V5c0-.532-.212-1.04-.586-1.414-.374-.374-.882-.586-1.414-.586zm-10 14h-2V7.84h2V17m4 0h-2v-6.48h2V17m4 0h-2V9.966h2V17M2779 3h-14c-.532 0-1.04.212-1.414.586-.374.374-.586.882-.586 1.414v14c0 .532.212 1.04.586 1.414.374.374.882.586 1.414.586h14c.532 0 1.04-.212 1.414-.586.374-.374.586-.882.586-1.414V5c0-.532-.212-1.04-.586-1.414-.374-.374-.882-.586-1.414-.586zm-10 14h-2V7.831h2V17m4 0h-2v-6.466h2V17m4 0h-2V9.954h2V17M2803 3h-14c-.532 0-1.04.212-1.414.586-.374.374-.586.882-.586 1.414v14c0 .532.212 1.04.586 1.414.374.374.882.586 1.414.586h14c.532 0 1.04-.212 1.414-.586.374-.374.586-.882.586-1.414V5c0-.532-.212-1.04-.586-1.414-.374-.374-.882-.586-1.414-.586zm-10 14h-2V7.822h2V17m4 0h-2v-6.452h2V17m4 0h-2V9.942h2V17M2827 3h-14c-.532 0-1.04.212-1.414.586-.374.374-.586.882-.586 1.414v14c0 .532.212 1.04.586 1.414.374.374.882.586 1.414.586h14c.532 0 1.04-.212 1.414-.586.374-.374.586-.882.586-1.414V5c0-.532-.212-1.04-.586-1.414-.374-.374-.882-.586-1.414-.586zm-10 14h-2V7.814h2V17m4 0h-2v-6.438h2V17m4 0h-2V9.93h2V17M2851 3h-14c-.532 0-1.04.212-1.414.586-.374.374-.586.882-.586 1.414v14c0 .532.212 1.04.586 1.414.374.374.882.586 1.414.586h14c.532 0 1.04-.212 1.414-.586.374-.374.586-.882.586-1.414V5c0-.532-.212-1.04-.586-1.414-.374-.374-.882-.586-1.414-.586zm-10 14h-2V7.806h2V17m4 0h-2v-6.425h2V17m4 0h-2V9.919h2V17M2875 3h-14c-.532 0-1.04.212-1.414.586-.374.374-.586.882-.586 1.414v14c0 .532.212 1.04.586 1.414.374.374.882.586 1.414.586h14c.532 0 1.04-.212 1.414-.586.374-.374.586-.882.586-1.414V5c0-.532-.212-1.04-.586-1.414-.374-.374-.882-.586-1.414-.586zm-10 14h-2V7.798h2V17m4 0h-2v-6.412h2V17m4 0h-2V9.908h2V17M2899 3h-14c-.532 0-1.04.212-1.414.586-.374.374-.586.882-.586 1.414v14c0 .532.212 1.04.586 1.414.374.374.882.586 1.414.586h14c.532 0 1.04-.212 1.414-.586.374-.374.586-.882.586-1.414V5c0-.532-.212-1.04-.586-1.414-.374-.374-.882-.586-1.414-.586zm-10 14h-2V7.79h2V17m4 0h-2v-6.4h2V17m4 0h-2V9.897h2V17M2923 3h-14c-.532 0-1.04.212-1.414.586-.374.374-.586.882-.586 1.414v14c0 .532.212 1.04.586 1.414.374.374.882.586 1.414.586h14c.532 0 1.04-.212 1.414-.586.374-.374.586-.882.586-1.414V5c0-.532-.212-1.04-.586-1.414-.374-.374-.882-.586-1.414-.586zm-10 14h-2V7.783h2V17m4 0h-2v-6.388h2V17m4 0h-2V9.886h2V17M2947 3h-14c-.531 0-1.04.212-1.414.586-.374.374-.586.883-.586 1.414v14c0 .531.212 1.04.586 1.414.374.374.883.586 1.414.586h14c.531 0 1.04-.212 1.414-.586.374-.374.586-.883.586-1.414V5c0-.531-.212-1.04-.586-1.414-.374-.374-.883-.586-1.414-.586zm-10 14h-2V7.775h2V17m4 0h-2v-6.376h2V17m4 0h-2V9.876h2V17M2971 3h-14c-.531 0-1.04.212-1.414.586-.374.374-.586.883-.586 1.414v14c0 .531.212 1.04.586 1.414.374.374.883.586 1.414.586h14c.531 0 1.04-.212 1.414-.586.374-.374.586-.883.586-1.414V5c0-.531-.212-1.04-.586-1.414-.374-.374-.883-.586-1.414-.586zm-10 14h-2V7.768h2V17m4 0h-2v-6.364h2V17m4 0h-2V9.866h2V17M2995 3h-14c-.531 0-1.04.212-1.414.586-.374.374-.586.883-.586 1.414v14c0 .531.212 1.04.586 1.414.374.374.883.586 1.414.586h14c.531 0 1.04-.212 1.414-.586.374-.374.586-.883.586-1.414V5c0-.531-.212-1.04-.586-1.414-.374-.374-.883-.586-1.414-.586zm-10 14h-2V7.761h2V17m4 0h-2v-6.353h2V17m4 0h-2V9.857h2V17M3019 3h-14c-.531 0-1.04.212-1.414.586-.374.374-.586.883-.586 1.414v14c0 .531.212 1.04.586 1.414.374.374.883.586 1.414.586h14c.531 0 1.04-.212 1.414-.586.374-.374.586-.883.586-1.414V5c0-.531-.212-1.04-.586-1.414-.374-.374-.883-.586-1.414-.586zm-10 14h-2V7.755h2V17m4 0h-2v-6.342h2V17m4 0h-2V9.847h2V17M3043 3h-14c-.531 0-1.04.212-1.414.586-.374.374-.586.883-.586 1.414v14c0 .531.212 1.04.586 1.414.374.374.883.586 1.414.586h14c.531 0 1.04-.212 1.414-.586.374-.374.586-.883.586-1.414V5c0-.531-.212-1.04-.586-1.414-.374-.374-.883-.586-1.414-.586zm-10 14h-2V7.748h2V17m4 0h-2v-6.331h2V17m4 0h-2V9.838h2V17M3067 3h-14c-.531 0-1.04.212-1.414.586-.374.374-.586.883-.586 1.414v14c0 .531.212 1.04.586 1.414.374.374.883.586 1.414.586h14c.531 0 1.04-.212 1.414-.586.374-.374.586-.883.586-1.414V5c0-.531-.212-1.04-.586-1.414-.374-.374-.883-.586-1.414-.586zm-10 14h-2V7.742h2V17m4 0h-2v-6.321h2V17m4 0h-2V9.829h2V17M3091 3h-14c-.531 0-1.04.212-1.414.586-.374.374-.586.883-.586 1.414v14c0 .531.212 1.04.586 1.414.374.374.883.586 1.414.586h14c.531 0 1.04-.212 1.414-.586.374-.374.586-.883.586-1.414V5c0-.531-.212-1.04-.586-1.414-.374-.374-.883-.586-1.414-.586zm-10 14h-2V7.736h2V17m4 0h-2v-6.311h2V17m4 0h-2V9.821h2V17M3115 3h-14c-.531 0-1.04.212-1.414.586-.374.374-.586.883-.586 1.414v14c0 .531.212 1.04.586 1.414.374.374.883.586 1.414.586h14c.531 0 1.04-.212 1.414-.586.374-.374.586-.883.586-1.414V5c0-.531-.212-1.04-.586-1.414-.374-.374-.883-.586-1.414-.586zm-10 14h-2V7.73h2V17m4 0h-2v-6.301h2V17m4 0h-2V9.812h2V17M3139 3h-14c-.531 0-1.04.212-1.414.586-.374.374-.586.883-.586 1.414v14c0 .531.212 1.04.586 1.414.374.374.883.586 1.414.586h14c.531 0 1.04-.212 1.414-.586.374-.374.586-.883.586-1.414V5c0-.531-.212-1.04-.586-1.414-.374-.374-.883-.586-1.414-.586zm-10 14h-2V7.724h2V17m4 0h-2v-6.292h2V17m4 0h-2V9.804h2V17M3163 3h-14c-.531 0-1.04.212-1.414.586-.374.374-.586.883-.586 1.414v14c0 .531.212 1.04.586 1.414.374.374.883.586 1.414.586h14c.531 0 1.04-.212 1.414-.586.374-.374.586-.883.586-1.414V5c0-.531-.212-1.04-.586-1.414-.374-.374-.883-.586-1.414-.586zm-10 14h-2V7.718h2V17m4 0h-2v-6.283h2V17m4 0h-2V9.796h2V17M3187 3h-14c-.531 0-1.04.212-1.414.586-.374.374-.586.883-.586 1.414v14c0 .531.212 1.04.586 1.414.374.374.883.586 1.414.586h14c.531 0 1.04-.212 1.414-.586.374-.374.586-.883.586-1.414V5c0-.531-.212-1.04-.586-1.414-.374-.374-.883-.586-1.414-.586zm-10 14h-2V7.713h2V17m4 0h-2v-6.274h2V17m4 0h-2V9.789h2V17M3211 3h-14c-.531 0-1.039.212-1.414.586-.374.375-.586.883-.586 1.414v14c0 .531.212 1.039.586 1.414.375.374.883.586 1.414.586h14c.531 0 1.039-.212 1.414-.586.374-.375.586-.883.586-1.414V5c0-.531-.212-1.039-.586-1.414-.375-.374-.883-.586-1.414-.586zm-10 14h-2V7.708h2V17m4 0h-2v-6.265h2V17m4 0h-2V9.781h2V17M3235 3h-14c-.531 0-1.039.212-1.414.586-.374.375-.586.883-.586 1.414v14c0 .531.212 1.039.586 1.414.375.374.883.586 1.414.586h14c.531 0 1.039-.212 1.414-.586.374-.375.586-.883.586-1.414V5c0-.531-.212-1.039-.586-1.414-.375-.374-.883-.586-1.414-.586zm-10 14h-2V7.702h2V17m4 0h-2v-6.257h2V17m4 0h-2V9.774h2V17M3259 3h-14c-.531 0-1.039.212-1.414.586-.374.375-.586.883-.586 1.414v14c0 .531.212 1.039.586 1.414.375.374.883.586 1.414.586h14c.531 0 1.039-.212 1.414-.586.374-.375.586-.883.586-1.414V5c0-.531-.212-1.039-.586-1.414-.375-.374-.883-.586-1.414-.586zm-10 14h-2V7.698h2V17m4 0h-2v-6.249h2V17m4 0h-2V9.767h2V17M3283 3h-14c-.531 0-1.039.212-1.414.586-.374.375-.586.883-.586 1.414v14c0 .531.212 1.039.586 1.414.375.374.883.586 1.414.586h14c.531 0 1.039-.212 1.414-.586.374-.375.586-.883.586-1.414V5c0-.531-.212-1.039-.586-1.414-.375-.374-.883-.586-1.414-.586zm-10 14h-2V7.693h2V17m4 0h-2v-6.241h2V17m4 0h-2V9.76h2V17M3307 3h-14c-.531 0-1.039.212-1.414.586-.374.375-.586.883-.586 1.414v14c0 .531.212 1.039.586 1.414.375.374.883.586 1.414.586h14c.531 0 1.039-.212 1.414-.586.374-.375.586-.883.586-1.414V5c0-.531-.212-1.039-.586-1.414-.375-.374-.883-.586-1.414-.586zm-10 14h-2V7.688h2V17m4 0h-2v-6.233h2V17m4 0h-2V9.754h2V17M3331 3h-14c-.531 0-1.039.211-1.414.586S3315 4.469 3315 5v14c0 .531.211 1.039.586 1.414s.883.586 1.414.586h14c.531 0 1.039-.211 1.414-.586s.586-.883.586-1.414V5c0-.531-.211-1.039-.586-1.414S3331.531 3 3331 3zm-10 14h-2V7.684h2V17m4 0h-2v-6.226h2V17m4 0h-2V9.747h2V17M3355 3h-14c-.531 0-1.039.211-1.414.586S3339 4.469 3339 5v14c0 .531.211 1.039.586 1.414s.883.586 1.414.586h14c.531 0 1.039-.211 1.414-.586s.586-.883.586-1.414V5c0-.531-.211-1.039-.586-1.414S3355.531 3 3355 3zm-10 14h-2V7.679h2V17m4 0h-2v-6.219h2V17m4 0h-2V9.741h2V17M3379 3h-14c-.531 0-1.039.211-1.414.586S3363 4.469 3363 5v14c0 .531.211 1.039.586 1.414s.883.586 1.414.586h14c.531 0 1.039-.211 1.414-.586s.586-.883.586-1.414V5c0-.531-.211-1.039-.586-1.414S3379.531 3 3379 3zm-10 14h-2V7.675h2V17m4 0h-2v-6.212h2V17m4 0h-2V9.735h2V17M3403 3h-14c-.531 0-1.039.211-1.414.586S3387 4.469 3387 5v14c0 .531.211 1.039.586 1.414s.883.586 1.414.586h14c.531 0 1.039-.211 1.414-.586s.586-.883.586-1.414V5c0-.531-.211-1.039-.586-1.414S3403.531 3 3403 3zm-10 14h-2V7.671h2V17m4 0h-2v-6.205h2V17m4 0h-2V9.729h2V17M3427 3h-14c-.531 0-1.039.211-1.414.586S3411 4.469 3411 5v14c0 .531.211 1.039.586 1.414s.883.586 1.414.586h14c.531 0 1.039-.211 1.414-.586s.586-.883.586-1.414V5c0-.531-.211-1.039-.586-1.414S3427.531 3 3427 3zm-10 14h-2V7.667h2V17m4 0h-2v-6.199h2V17m4 0h-2V9.724h2V17M3451 3h-14c-.531 0-1.039.211-1.414.586S3435 4.469 3435 5v14c0 .531.211 1.039.586 1.414s.883.586 1.414.586h14c.531 0 1.039-.211 1.414-.586s.586-.883.586-1.414V5c0-.531-.211-1.039-.586-1.414S3451.531 3 3451 3zm-10 14h-2V7.663h2V17m4 0h-2v-6.193h2V17m4 0h-2V9.719h2V17M3475 3h-14c-.53 0-1.039.211-1.414.586S3459 4.47 3459 5v14c0 .53.211 1.039.586 1.414s.884.586 1.414.586h14c.53 0 1.039-.211 1.414-.586S3477 19.53 3477 19V5c0-.53-.211-1.039-.586-1.414S3475.53 3 3475 3zm-10 14h-2V7.659h2V17m4 0h-2v-6.187h2V17m4 0h-2V9.713h2V17M3499 3h-14c-.53 0-1.039.211-1.414.586S3483 4.47 3483 5v14c0 .53.211 1.039.586 1.414s.884.586 1.414.586h14c.53 0 1.039-.211 1.414-.586S3501 19.53 3501 19V5c0-.53-.211-1.039-.586-1.414S3499.53 3 3499 3zm-10 14h-2V7.656h2V17m4 0h-2v-6.181h2V17m4 0h-2V9.708h2V17M3523 3h-14c-.53 0-1.039.211-1.414.586S3507 4.47 3507 5v14c0 .53.211 1.039.586 1.414s.884.586 1.414.586h14c.53 0 1.039-.211 1.414-.586S3525 19.53 3525 19V5c0-.53-.211-1.039-.586-1.414S3523.53 3 3523 3zm-10 14h-2V7.652h2V17m4 0h-2v-6.175h2V17m4 0h-2V9.704h2V17M3547 3h-14c-.53 0-1.039.211-1.414.586S3531 4.47 3531 5v14c0 .53.211 1.039.586 1.414s.884.586 1.414.586h14c.53 0 1.039-.211 1.414-.586S3549 19.53 3549 19V5c0-.53-.211-1.039-.586-1.414S3547.53 3 3547 3zm-10 14h-2V7.649h2V17m4 0h-2v-6.17h2V17m4 0h-2V9.699h2V17M3571 3h-14c-.53 0-1.039.211-1.414.586S3555 4.47 3555 5v14c0 .53.211 1.039.586 1.414s.884.586 1.414.586h14c.53 0 1.039-.211 1.414-.586S3573 19.53 3573 19V5c0-.53-.211-1.039-.586-1.414S3571.53 3 3571 3zm-10 14h-2V7.646h2V17m4 0h-2v-6.165h2V17m4 0h-2V9.694h2V17M3595 3h-14c-.53 0-1.039.211-1.414.586S3579 4.47 3579 5v14c0 .53.211 1.039.586 1.414s.884.586 1.414.586h14c.53 0 1.039-.211 1.414-.586S3597 19.53 3597 19V5c0-.53-.211-1.039-.586-1.414S3595.53 3 3595 3zm-10 14h-2V7.643h2V17m4 0h-2v-6.16h2V17m4 0h-2V9.69h2V17M3619 3h-14c-.53 0-1.039.211-1.414.586S3603 4.47 3603 5v14c0 .53.211 1.039.586 1.414s.884.586 1.414.586h14c.53 0 1.039-.211 1.414-.586S3621 19.53 3621 19V5c0-.53-.211-1.039-.586-1.414S3619.53 3 3619 3zm-10 14h-2V7.64h2V17m4 0h-2v-6.155h2V17m4 0h-2V9.686h2V17M3643 3h-14c-.53 0-1.039.211-1.414.586S3627 4.47 3627 5v14c0 .53.211 1.039.586 1.414s.884.586 1.414.586h14c.53 0 1.039-.211 1.414-.586S3645 19.53 3645 19V5c0-.53-.211-1.039-.586-1.414S3643.53 3 3643 3zm-10 14h-2V7.637h2V17m4 0h-2v-6.15h2V17m4 0h-2V9.682h2V17M3667 3h-14c-.53 0-1.039.211-1.414.586S3651 4.47 3651 5v14c0 .53.211 1.039.586 1.414s.884.586 1.414.586h14c.53 0 1.039-.211 1.414-.586S3669 19.53 3669 19V5c0-.53-.211-1.039-.586-1.414S3667.53 3 3667 3zm-10 14h-2V7.634h2V17m4 0h-2v-6.146h2V17m4 0h-2V9.678h2V17M3691 3h-14c-.53 0-1.039.211-1.414.586S3675 4.47 3675 5v14c0 .53.211 1.039.586 1.414s.884.586 1.414.586h14c.53 0 1.039-.211 1.414-.586S3693 19.53 3693 19V5c0-.53-.211-1.039-.586-1.414S3691.53 3 3691 3zm-10 14h-2V7.632h2V17m4 0h-2v-6.142h2V17m4 0h-2V9.675h2V17M3715 3h-14c-.53 0-1.039.211-1.414.586S3699 4.47 3699 5v14c0 .53.211 1.039.586 1.414s.884.586 1.414.586h14c.53 0 1.039-.211 1.414-.586S3717 19.53 3717 19V5c0-.53-.211-1.039-.586-1.414S3715.53 3 3715 3zm-10 14h-2V7.629h2V17m4 0h-2v-6.138h2V17m4 0h-2V9.671h2V17M3739 3h-14c-.53 0-1.039.211-1.414.586S3723 4.47 3723 5v14c0 .53.211 1.039.586 1.414s.884.586 1.414.586h14c.53 0 1.039-.211 1.414-.586S3741 19.53 3741 19V5c0-.53-.211-1.039-.586-1.414S3739.53 3 3739 3zm-10 14h-2V7.627h2V17m4 0h-2v-6.134h2V17m4 0h-2V9.668h2V17M3763 3h-14c-.53 0-1.039.211-1.414.586S3747 4.47 3747 5v14c0 .53.211 1.039.586 1.414s.884.586 1.414.586h14c.53 0 1.039-.211 1.414-.586S3765 19.53 3765 19V5c0-.53-.211-1.039-.586-1.414S3763.53 3 3763 3zm-10 14h-2V7.625h2V17m4 0h-2v-6.13h2V17m4 0h-2V9.665h2V17M3787 3h-14c-.53 0-1.039.211-1.414.586S3771 4.47 3771 5v14c0 .53.211 1.039.586 1.414s.884.586 1.414.586h14c.53 0 1.039-.211 1.414-.586S3789 19.53 3789 19V5c0-.53-.211-1.039-.586-1.414S3787.53 3 3787 3zm-10 14h-2V7.623h2V17m4 0h-2v-6.127h2V17m4 0h-2V9.662h2V17M3811 3h-14c-.53 0-1.039.211-1.414.586S3795 4.47 3795 5v14c0 .53.211 1.039.586 1.414s.884.586 1.414.586h14c.53 0 1.039-.211 1.414-.586S3813 19.53 3813 19V5c0-.53-.211-1.039-.586-1.414S3811.53 3 3811 3zm-10 14h-2V7.621h2V17m4 0h-2v-6.124h2V17m4 0h-2V9.659h2V17M3835 3h-14c-.53 0-1.039.211-1.414.586S3819 4.47 3819 5v14c0 .53.211 1.039.586 1.414s.884.586 1.414.586h14c.53 0 1.039-.211 1.414-.586S3837 19.53 3837 19V5c0-.53-.211-1.039-.586-1.414S3835.53 3 3835 3zm-10 14h-2V7.619h2V17m4 0h-2v-6.12h2V17m4 0h-2V9.656h2V17M3859 3h-14c-.53 0-1.039.211-1.414.586S3843 4.47 3843 5v14c0 .53.211 1.039.586 1.414s.884.586 1.414.586h14c.53 0 1.039-.211 1.414-.586S3861 19.53 3861 19V5c0-.53-.211-1.039-.586-1.414S3859.53 3 3859 3zm-10 14h-2V7.617h2V17m4 0h-2v-6.118h2V17m4 0h-2V9.654h2V17M3883 3h-14c-.53 0-1.039.211-1.414.586S3867 4.47 3867 5v14c0 .53.211 1.039.586 1.414s.884.586 1.414.586h14c.53 0 1.039-.211 1.414-.586S3885 19.53 3885 19V5c0-.53-.211-1.039-.586-1.414S3883.53 3 3883 3zm-10 14h-2V7.615h2V17m4 0h-2v-6.115h2V17m4 0h-2V9.651h2V17M3907 3h-14c-.53 0-1.039.211-1.414.586S3891 4.47 3891 5v14c0 .53.211 1.039.586 1.414s.884.586 1.414.586h14c.53 0 1.039-.211 1.414-.586S3909 19.53 3909 19V5c0-.53-.211-1.039-.586-1.414S3907.53 3 3907 3zm-10 14h-2V7.614h2V17m4 0h-2v-6.112h2V17m4 0h-2V9.649h2V17M3931 3h-14c-.53 0-1.039.211-1.414.586S3915 4.47 3915 5v14c0 .53.211 1.039.586 1.414s.884.586 1.414.586h14c.53 0 1.039-.211 1.414-.586S3933 19.53 3933 19V5c0-.53-.211-1.039-.586-1.414S3931.53 3 3931 3zm-10 14h-2V7.612h2V17m4 0h-2v-6.11h2V17m4 0h-2V9.647h2V17M3955 3h-14c-.53 0-1.039.211-1.414.586S3939 4.47 3939 5v14c0 .53.211 1.039.586 1.414s.884.586 1.414.586h14c.53 0 1.039-.211 1.414-.586S3957 19.53 3957 19V5c0-.53-.211-1.039-.586-1.414S3955.53 3 3955 3zm-10 14h-2V7.611h2V17m4 0h-2v-6.107h2V17m4 0h-2V9.645h2V17M3979 3h-14c-.53 0-1.039.211-1.414.586S3963 4.47 3963 5v14c0 .53.211 1.039.586 1.414s.884.586 1.414.586h14c.53 0 1.039-.211 1.414-.586S3981 19.53 3981 19V5c0-.53-.211-1.039-.586-1.414S3979.53 3 3979 3zm-10 14h-2V7.609h2V17m4 0h-2v-6.105h2V17m4 0h-2V9.643h2V17M4003 3h-14c-.53 0-1.039.211-1.414.586S3987 4.47 3987 5v14c0 .53.211 1.039.586 1.414s.884.586 1.414.586h14c.53 0 1.039-.211 1.414-.586S4005 19.53 4005 19V5c0-.53-.211-1.039-.586-1.414S4003.53 3 4003 3zm-10 14h-2V7.608h2V17m4 0h-2v-6.103h2V17m4 0h-2V9.641h2V17M4027 3h-14c-.53 0-1.039.211-1.414.586S4011 4.47 4011 5v14c0 .53.211 1.039.586 1.414s.884.586 1.414.586h14c.53 0 1.039-.211 1.414-.586S4029 19.53 4029 19V5c0-.53-.211-1.039-.586-1.414S4027.53 3 4027 3zm-10 14h-2V7.607h2V17m4 0h-2v-6.101h2V17m4 0h-2V9.64h2V17M4051 3h-14c-.53 0-1.039.211-1.414.586S4035 4.47 4035 5v14c0 .53.211 1.039.586 1.414s.884.586 1.414.586h14c.53 0 1.039-.211 1.414-.586S4053 19.53 4053 19V5c0-.53-.211-1.039-.586-1.414S4051.53 3 4051 3zm-10 14h-2V7.606h2V17m4 0h-2v-6.1h2V17m4 0h-2V9.638h2V17M4075 3h-14c-.53 0-1.039.211-1.414.586S4059 4.47 4059 5v14c0 .53.211 1.039.586 1.414s.884.586 1.414.586h14c.53 0 1.039-.211 1.414-.586S4077 19.53 4077 19V5c0-.53-.211-1.039-.586-1.414S4075.53 3 4075 3zm-10 14h-2V7.605h2V17m4 0h-2v-6.098h2V17m4 0h-2V9.637h2V17M4099 3h-14c-.53 0-1.039.211-1.414.586S4083 4.47 4083 5v14c0 .53.211 1.039.586 1.414s.884.586 1.414.586h14c.53 0 1.039-.211 1.414-.586S4101 19.53 4101 19V5c0-.53-.211-1.039-.586-1.414S4099.53 3 4099 3zm-10 14h-2V7.604h2V17m4 0h-2v-6.097h2V17m4 0h-2V9.636h2V17M4123 3h-14c-.53 0-1.039.211-1.414.586S4107 4.47 4107 5v14c0 .53.211 1.039.586 1.414s.884.586 1.414.586h14c.53 0 1.039-.211 1.414-.586S4125 19.53 4125 19V5c0-.53-.211-1.039-.586-1.414S4123.53 3 4123 3zm-10 14h-2V7.603h2V17m4 0h-2v-6.095h2V17m4 0h-2V9.635h2V17M4147 3h-14c-.53 0-1.039.211-1.414.586S4131 4.47 4131 5v14c0 .53.211 1.039.586 1.414s.884.586 1.414.586h14c.53 0 1.039-.211 1.414-.586S4149 19.53 4149 19V5c0-.53-.211-1.039-.586-1.414S4147.53 3 4147 3zm-10 14h-2V7.603h2V17m4 0h-2v-6.094h2V17m4 0h-2V9.634h2V17M4171 3h-14c-.53 0-1.039.211-1.414.586S4155 4.47 4155 5v14c0 .53.211 1.039.586 1.414s.884.586 1.414.586h14c.53 0 1.039-.211 1.414-.586S4173 19.53 4173 19V5c0-.53-.211-1.039-.586-1.414S4171.53 3 4171 3zm-10 14h-2V7.602h2V17m4 0h-2v-6.093h2V17m4 0h-2V9.633h2V17M4195 3h-14c-.53 0-1.039.211-1.414.586S4179 4.47 4179 5v14c0 .53.211 1.039.586 1.414s.884.586 1.414.586h14c.53 0 1.039-.211 1.414-.586S4197 19.53 4197 19V5c0-.53-.211-1.039-.586-1.414S4195.53 3 4195 3zm-10 14h-2V7.601h2V17m4 0h-2v-6.092h2V17m4 0h-2V9.632h2V17M4219 3h-14c-.53 0-1.039.211-1.414.586S4203 4.47 4203 5v14c0 .53.211 1.039.586 1.414s.884.586 1.414.586h14c.53 0 1.039-.211 1.414-.586S4221 19.53 4221 19V5c0-.53-.211-1.039-.586-1.414S4219.53 3 4219 3zm-10 14h-2V7.601h2V17m4 0h-2v-6.092h2V17m4 0h-2V9.631h2V17M4243 3h-14c-.53 0-1.039.211-1.414.586S4227 4.47 4227 5v14c0 .53.211 1.039.586 1.414s.884.586 1.414.586h14c.53 0 1.039-.211 1.414-.586S4245 19.53 4245 19V5c0-.53-.211-1.039-.586-1.414S4243.53 3 4243 3zm-10 14h-2V7.601h2V17m4 0h-2v-6.091h2V17m4 0h-2V9.631h2V17M4267 3h-14c-.53 0-1.039.211-1.414.586S4251 4.47 4251 5v14c0 .53.211 1.039.586 1.414s.884.586 1.414.586h14c.53 0 1.039-.211 1.414-.586S4269 19.53 4269 19V5c0-.53-.211-1.039-.586-1.414S4267.53 3 4267 3zm-10 14h-2V7.6h2V17m4 0h-2v-6.091h2V17m4 0h-2V9.63h2V17M4291 3h-14c-.53 0-1.039.211-1.414.586S4275 4.47 4275 5v14c0 .53.211 1.039.586 1.414s.884.586 1.414.586h14c.53 0 1.039-.211 1.414-.586S4293 19.53 4293 19V5c0-.53-.211-1.039-.586-1.414S4291.53 3 4291 3zm-10 14h-2V7.6h2V17m4 0h-2v-6.09h2V17m4 0h-2V9.63h2V17M4315 3h-14c-.53 0-1.039.211-1.414.586S4299 4.47 4299 5v14c0 .53.211 1.039.586 1.414s.884.586 1.414.586h14c.53 0 1.039-.211 1.414-.586S4317 19.53 4317 19V5c0-.53-.211-1.039-.586-1.414S4315.53 3 4315 3zm-10 14h-2V7.6h2V17m4 0h-2v-6.09h2V17m4 0h-2V9.63h2V17M4339 3h-14c-.53 0-1.039.211-1.414.586S4323 4.47 4323 5v14c0 .53.211 1.039.586 1.414s.884.586 1.414.586h14c.53 0 1.039-.211 1.414-.586S4341 19.53 4341 19V5c0-.53-.211-1.039-.586-1.414S4339.53 3 4339 3zm-10 14h-2V7.6h2V17m4 0h-2v-6.09h2V17m4 0h-2V9.63h2V17" fill="#ffffff"/></svg>