<svg id="Layer_1" data-name="Layer 1" xmlns="http://www.w3.org/2000/svg" viewBox="0 0 431.5 593.23"><defs><style>.cls-1{fill:#7f8c92;}.cls-2{fill:#e7ebec;}.cls-3{fill:#a3aeb2;}.cls-4{fill:#057895;}.cls-5{fill:#0c97c3;}.cls-6{fill:#d3a013;}.cls-7{fill:#ffbe25;}.cls-8{fill:#bfc7c9;}</style></defs><title>server</title><polygon class="cls-1" points="429.05 380.91 199.74 226.68 0.13 360.15 228.7 515.75 429.05 380.91"/><polygon class="cls-2" points="229.34 515.36 229.05 593.23 0 437.77 0 360.35 229.34 515.36"/><path class="cls-1" d="M756.46,569.27" transform="translate(-328.01 -111.96)"/><polygon class="cls-3" points="429.83 379.56 428.63 457.34 229.37 593.1 229.37 515.32 429.83 379.56"/><path d="M519.55,642.53l-100.37-68-14.35-9.73c-2.09-1.42-4.06,2-2,3.38l100.37,68,14.35,9.73c2.1,1.42,4.06-2,2-3.38Z" transform="translate(-328.01 -111.96)"/><polygon class="cls-4" points="43.35 423.63 45.77 422.22 45.77 425.29 43.35 423.63"/><polygon class="cls-4" points="59.66 450 57.24 451.42 57.24 448.47 59.66 450"/><polygon class="cls-4" points="57.24 433.12 45.77 425.29 45.77 422.22 59.66 431.71 59.66 450 57.24 448.47 57.24 433.12"/><polygon class="cls-5" points="45.77 428.47 45.77 441.19 55.08 447.1 57.24 451.42 43.35 442.61 43.35 423.63 45.77 428.47"/><polygon class="cls-5" points="45.77 441.19 45.77 428.47 55.08 447.1 45.77 441.19"/><polygon class="cls-5" points="45.77 428.47 43.35 423.63 45.77 425.29 45.77 428.47"/><polygon class="cls-5" points="57.24 448.47 57.24 451.42 55.08 447.1 57.24 448.47"/><polygon class="cls-5" points="57.24 433.12 57.24 448.47 55.08 447.1 45.77 428.47 45.77 425.29 57.24 433.12"/><polygon class="cls-6" points="19 408.5 21.41 407.09 21.41 410.15 19 408.5"/><polygon class="cls-6" points="35.3 434.87 32.88 436.28 32.88 433.34 35.3 434.87"/><polygon class="cls-6" points="32.88 417.99 21.41 410.15 21.41 407.09 35.3 416.57 35.3 434.87 32.88 433.34 32.88 417.99"/><polygon class="cls-7" points="32.88 433.34 32.88 417.99 19.12 408.6 19.04 427.31 32.87 436.18 32.88 433.34"/><polygon class="cls-1" points="429.05 269.22 199.74 114.99 0.13 248.46 228.7 404.06 429.05 269.22"/><polygon class="cls-2" points="229.34 403.67 229.05 481.54 0 326.08 0 248.66 229.34 403.67"/><path class="cls-1" d="M756.46,457.58" transform="translate(-328.01 -111.96)"/><polygon class="cls-3" points="429.83 267.87 428.63 345.65 229.37 481.41 229.37 403.63 429.83 267.87"/><path d="M519.55,530.84,419.18,462.79l-14.35-9.73c-2.09-1.42-4.06,2-2,3.39l100.37,68,14.35,9.73c2.1,1.42,4.06-2,2-3.38Z" transform="translate(-328.01 -111.96)"/><polygon class="cls-4" points="43.35 311.95 45.77 310.53 45.77 313.6 43.35 311.95"/><polygon class="cls-4" points="59.66 338.31 57.24 339.73 57.24 336.78 59.66 338.31"/><polygon class="cls-4" points="57.24 321.43 45.77 313.6 45.77 310.53 59.66 320.02 59.66 338.31 57.24 336.78 57.24 321.43"/><polygon class="cls-5" points="45.77 316.78 45.77 329.5 55.08 335.41 57.24 339.73 43.35 330.92 43.35 311.95 45.77 316.78"/><polygon class="cls-5" points="45.77 329.5 45.77 316.78 55.08 335.41 45.77 329.5"/><polygon class="cls-5" points="45.77 316.78 43.35 311.95 45.77 313.6 45.77 316.78"/><polygon class="cls-5" points="57.24 336.78 57.24 339.73 55.08 335.41 57.24 336.78"/><polygon class="cls-5" points="57.24 321.43 57.24 336.78 55.08 335.41 45.77 316.78 45.77 313.6 57.24 321.43"/><polygon class="cls-6" points="19 296.81 21.41 295.4 21.41 298.46 19 296.81"/><polygon class="cls-6" points="35.3 323.18 32.88 324.6 32.88 321.65 35.3 323.18"/><polygon class="cls-6" points="32.88 306.3 21.41 298.46 21.41 295.4 35.3 304.89 35.3 323.18 32.88 321.65 32.88 306.3"/><polygon class="cls-7" points="32.88 321.65 32.88 306.3 19.12 296.91 19.04 315.62 32.87 324.49 32.88 321.65"/><polygon class="cls-8" points="430.72 154.23 201.4 0 1.79 133.47 230.36 289.08 430.72 154.23"/><polygon class="cls-2" points="231 288.69 230.72 366.55 1.66 211.1 1.66 133.68 231 288.69"/><path class="cls-1" d="M758.12,342.59" transform="translate(-328.01 -111.96)"/><polygon class="cls-3" points="431.5 152.88 430.29 230.66 231.04 366.42 231.04 288.64 431.5 152.88"/><path d="M521.22,415.85,420.85,347.8l-14.35-9.73c-2.1-1.42-4.06,2-2,3.39l100.37,68.05,14.35,9.73c2.09,1.42,4-2,2-3.39Z" transform="translate(-328.01 -111.96)"/><polygon class="cls-4" points="45.02 196.96 47.43 195.55 47.43 198.61 45.02 196.96"/><polygon class="cls-4" points="61.32 223.33 58.9 224.74 58.9 221.8 61.32 223.33"/><polygon class="cls-4" points="58.9 206.45 47.43 198.61 47.43 195.55 61.32 205.03 61.32 223.33 58.9 221.8 58.9 206.45"/><polygon class="cls-5" points="47.43 201.79 47.43 214.52 56.75 220.43 58.9 224.74 45.02 215.93 45.02 196.96 47.43 201.79"/><polygon class="cls-5" points="47.43 214.52 47.43 201.79 56.75 220.43 47.43 214.52"/><polygon class="cls-5" points="47.43 201.79 45.02 196.96 47.43 198.61 47.43 201.79"/><polygon class="cls-5" points="58.9 221.8 58.9 224.74 56.75 220.43 58.9 221.8"/><polygon class="cls-5" points="58.9 206.45 58.9 221.8 56.75 220.43 47.43 201.79 47.43 198.61 58.9 206.45"/><polygon class="cls-6" points="20.66 181.83 23.07 180.41 23.07 183.48 20.66 181.83"/><polygon class="cls-6" points="36.96 208.19 34.55 209.61 34.55 206.66 36.96 208.19"/><polygon class="cls-6" points="34.55 191.31 23.07 183.48 23.07 180.41 36.96 189.9 36.96 208.19 34.55 206.66 34.55 191.31"/><polygon class="cls-7" points="34.55 206.66 34.55 191.31 20.78 181.93 20.7 200.63 34.54 209.51 34.55 206.66"/></svg>